<svg width="116" height="116" viewBox="0 0 116 116" fill="none" xmlns="http://www.w3.org/2000/svg">
<path d="M50.7632 24.1058C50.7573 24.0955 50.7521 24.0847 50.7477 24.0737L50.7548 24.0665C50.7585 24.0794 50.7613 24.0926 50.7632 24.1058Z" fill="#3FBDF1"/>
<path d="M50.7905 24.244C50.7797 24.206 50.772 24.1672 50.7673 24.128C50.7862 24.1636 50.7943 24.2039 50.7905 24.244Z" fill="#3FBDF1"/>
<path d="M56.0014 64.1863C55.9724 64.2524 55.948 64.3174 55.919 64.3858C53.7776 69.6 52.2836 75.8385 51.9367 83.3042C45.9917 68.7416 36.1294 61.6923 27.3447 58.3074C27.5025 53.4412 28.1788 44.979 30.9407 39.7799C30.9407 39.7799 35.6178 40.8738 41.5048 45.4859C46.1495 49.1248 51.5539 54.9608 56.0014 64.1863Z" fill="#3FBDF1"/>
<path d="M56.8783 64.1074L56.6776 64.0622C56.7066 63.9926 56.7321 63.9264 56.76 63.8592C56.7994 63.9404 56.84 64.032 56.8783 64.1074Z" fill="#3FBDF1"/>
<path d="M56.8783 64.1074L56.6776 64.0622C56.7066 63.9926 56.7321 63.9264 56.76 63.8592C56.7994 63.9404 56.84 64.032 56.8783 64.1074Z" fill="#3FBDF1"/>
<path d="M53.034 97.534C52.9772 97.534 52.918 97.534 52.8624 97.534C30.6808 97.534 12.3064 80.7244 9.01435 58.7633C8.79279 56.8887 8.75916 55.7693 8.75916 55.7693C8.75916 55.7693 16.7632 54.9573 26.0432 58.6102C34.2734 61.85 43.5093 68.5954 49.0761 82.5294V82.5398C49.1098 82.6233 49.1434 82.7057 49.1736 82.7927C50.837 87.0093 52.1617 91.8801 53.0271 97.5026C53.0306 97.5131 53.034 97.5235 53.034 97.534Z" fill="#3FBDF1"/>
<path d="M104.669 56.4421C102.55 81.316 82.3717 100.847 57.7681 100.947C57.782 99.8168 58.1358 87.0487 65.8428 75.4731C69.2877 70.2495 73.9156 65.9117 79.351 62.8117C79.5053 62.7224 79.6549 62.6377 79.815 62.553C80.0041 62.4451 80.1978 62.3419 80.395 62.2386C80.4449 62.2096 80.4983 62.183 80.5528 62.154C80.7419 62.0542 80.9309 61.9545 81.1247 61.8582C81.2244 61.8071 81.3242 61.7549 81.4286 61.7074C81.6351 61.6007 81.8462 61.4963 82.0573 61.3965C82.2684 61.2967 82.454 61.2086 82.6547 61.1169L82.7255 61.0833C82.8763 61.0125 83.0259 60.9464 83.179 60.8803C83.3693 60.791 83.5583 60.7098 83.7509 60.6286C84.3123 60.385 84.8912 60.153 85.4816 59.9326L85.6858 59.8548C85.9352 59.7586 86.1857 59.6669 86.4398 59.5776C91.5438 57.768 97.57 56.6185 104.669 56.4421Z" fill="#71DDB1"/>
<path d="M71.1834 44.9024C66.1571 48.7096 60.4951 54.7102 56.7599 63.8592C52.316 54.4516 46.9266 48.4984 42.2913 44.7876C45.0289 39.6836 51.2337 29.3097 56.8783 24.4574C56.8783 24.4574 65.424 32.8988 71.1834 44.9024Z" fill="#71DDB1"/>
<path d="M85.9327 58.6067C85.6845 58.6937 85.4385 58.7842 85.1926 58.8781L84.9931 58.9547C84.4131 59.1716 83.847 59.4001 83.296 59.6391C83.1069 59.7191 82.9213 59.798 82.7357 59.885C82.5849 59.9511 82.4376 60.0161 82.2903 60.0845L82.2195 60.117C82.0235 60.2075 81.8275 60.298 81.6395 60.3931C81.4516 60.4882 81.2254 60.5915 81.0213 60.697C80.9203 60.7434 80.8218 60.7945 80.7243 60.8455C80.5341 60.9395 80.3485 61.0369 80.1629 61.1355C80.1107 61.1645 80.0573 61.1889 80.0086 61.2179C79.8195 61.3199 79.6304 61.4209 79.4437 61.5264C79.2894 61.6099 79.1421 61.6923 78.9913 61.7793C73.6574 64.8199 69.1153 69.075 65.7336 74.1994C58.1751 85.5535 57.8271 98.0792 57.8131 99.187L57.7957 99.1545C56.8909 93.2756 55.5071 88.1832 53.7671 83.7752L53.9039 83.3263L53.6661 83.5107C53.6661 83.5107 53.6661 83.5107 53.6661 83.5038C54.006 76.0357 55.4676 69.7914 57.5649 64.5795L57.7609 64.6225L57.6449 64.38C61.3094 55.4051 66.8635 49.5193 71.7969 45.7852C77.6074 41.3888 82.5606 39.9655 82.5606 39.9655C85.2031 43.2321 85.8063 53.2243 85.9327 58.6067Z" fill="#3FBDF1"/>
<path d="M52.4714 84.6063V84.593C52.4714 84.593 52.4714 84.601 52.4714 84.6063Z" stroke="black" stroke-width="0.664046" stroke-miterlimit="10"/>
<path d="M56.7588 63.9728C56.7286 64.0436 56.7019 64.1132 56.6718 64.1875C54.4109 69.8088 52.8345 76.5426 52.4668 84.5965C46.1912 68.8866 35.7779 61.2805 26.499 57.63C26.6649 52.3798 27.3795 43.2518 30.298 37.642C30.298 37.642 35.2361 38.8217 41.4526 43.7981C46.3571 47.7236 52.0631 54.02 56.7588 63.9728Z" stroke="black" stroke-width="0.664046" stroke-miterlimit="10"/>
<path d="M56.884 64.235L56.6718 64.1874C56.7019 64.1132 56.7286 64.0436 56.7588 63.9728C56.8005 64.0587 56.84 64.148 56.884 64.235Z" stroke="black" stroke-width="0.664046" stroke-miterlimit="10"/>
<path d="M52.4714 84.6063V84.593C52.4714 84.593 52.4714 84.601 52.4714 84.6063Z" stroke="black" stroke-width="0.664046" stroke-miterlimit="10"/>
<path d="M56.884 64.235L56.6718 64.1874C56.7019 64.1132 56.7286 64.0436 56.7588 63.9728C56.8005 64.0587 56.84 64.148 56.884 64.235Z" stroke="black" stroke-width="0.664046" stroke-miterlimit="10"/>
<path opacity="0.9" d="M18.5031 82.9562C18.0937 82.4563 17.6911 81.9447 17.3037 81.425C12.0882 74.4864 8.65263 66.3754 7.29755 57.8016C6.95999 55.7009 7.01219 54.4272 7.01219 54.4272C7.01219 54.4272 16.0312 53.5131 26.5002 57.63C35.7802 61.2816 46.19 68.882 52.4668 84.5965V84.6092C52.5051 84.7032 52.5445 84.7972 52.5758 84.8946C54.455 89.6506 55.9468 95.1397 56.9235 101.483C56.9235 101.494 56.9235 101.506 56.9235 101.519C56.8574 101.519 56.7947 101.519 56.7286 101.519C43.7865 101.5 31.9835 96.338 23.084 87.9048C22.156 87.0267 21.2524 86.1091 20.3893 85.1591" stroke="black" stroke-width="0.664046" stroke-miterlimit="10"/>
<path d="M52.4714 84.6063V84.593C52.4714 84.593 52.4714 84.601 52.4714 84.6063Z" stroke="black" stroke-width="0.664046" stroke-miterlimit="10"/>
<path opacity="0.9" d="M106.56 54.4307C104.318 80.7453 82.9736 101.404 56.9443 101.509C56.9594 100.314 57.3341 86.8074 65.4854 74.5613C69.1309 69.0358 74.0274 64.4473 79.7778 61.168C79.9413 61.074 80.1003 60.9847 80.2661 60.8954C80.4668 60.7794 80.671 60.6726 80.8751 60.5624C80.9273 60.5311 80.9842 60.5044 81.041 60.4731C81.2417 60.3676 81.4424 60.262 81.6465 60.1611C81.7521 60.1054 81.8577 60.0451 81.9679 59.9998C82.1871 59.8838 82.4098 59.7783 82.6337 59.6727C82.8576 59.5672 83.0525 59.4732 83.2647 59.3758L83.3401 59.3398C83.4991 59.2656 83.658 59.196 83.8204 59.1252C84.0211 59.0312 84.2206 58.9454 84.4247 58.8596C85.0187 58.602 85.6311 58.3561 86.2552 58.1218L86.471 58.0394C86.7355 57.9385 86.9999 57.8399 87.2691 57.7471C92.6758 55.8285 99.0512 54.6174 106.56 54.4307Z" stroke="black" stroke-width="0.664046" stroke-miterlimit="10"/>
<path d="M72.0162 43.9199C66.6999 47.9463 60.7097 54.2938 56.7587 63.9728C52.063 54.02 46.357 47.7236 41.4525 43.7981C44.3525 38.396 50.9135 27.4247 56.8805 22.2917C56.884 22.2917 65.9169 31.2214 72.0162 43.9199Z" stroke="black" stroke-width="0.664046" stroke-miterlimit="10"/>
<path d="M21.9541 72.6676C21.9553 72.6599 21.9553 72.652 21.9541 72.6442C21.9541 72.6361 21.9541 72.6279 21.9541 72.6127C21.9523 72.5996 21.9523 72.5862 21.9541 72.5731C21.9574 72.6011 21.9629 72.6288 21.9705 72.6559C21.9687 72.6589 21.9664 72.6615 21.9636 72.6635C21.9607 72.6655 21.9575 72.6669 21.9541 72.6676Z" fill="white"/>
<path d="M21.997 80.1664C21.818 80.7438 21.5894 81.3046 21.3138 81.8426C21.2349 81.9946 21.1572 82.1431 21.0713 82.2916C20.7783 82.8416 20.4187 83.3535 20.0007 83.8158C19.9264 83.7914 19.8522 83.7601 19.7861 83.7334C19.771 83.7334 19.7582 83.7218 19.7466 83.7172C18.3952 83.1279 17.3802 82.0224 17.0786 80.7801C16.8095 79.6862 17.0519 78.503 16.5323 77.4764C15.8919 76.212 14.1659 75.4209 13.9501 73.9918C13.7552 72.6554 14.9581 71.4293 14.7621 70.1208C14.5394 68.6395 12.7193 67.7614 12.3829 66.316C12.1683 65.4182 12.3597 64.3823 12.282 63.4566C12.1922 62.422 12.0168 61.3965 11.7577 60.3908C11.883 60.3826 12.0083 60.3792 12.1335 60.3745C14.6855 60.3316 17.2109 61.7665 18.0391 63.7884C18.7073 65.4217 18.3674 67.3078 19.2536 68.839C19.3073 68.938 19.3674 69.0333 19.4334 69.1244C19.5497 69.2858 19.6748 69.4407 19.8081 69.5884L20.09 69.8819C20.1364 69.9283 20.1874 69.9712 20.2338 70.0222C20.2802 70.0733 20.3313 70.1162 20.3788 70.1672C20.8196 70.5883 21.2697 71.014 21.562 71.5186C21.589 71.5624 21.6127 71.6082 21.6328 71.6555C21.6601 71.7013 21.6834 71.7495 21.7024 71.7994C21.7276 71.8503 21.75 71.9026 21.7697 71.956C21.7929 72.014 21.8126 72.072 21.8311 72.1358C21.859 72.2297 21.8868 72.319 21.9054 72.413C21.9054 72.4362 21.9054 72.4559 21.9135 72.4756C21.9216 72.4954 21.9135 72.4907 21.9135 72.4988C21.9152 72.5065 21.9152 72.5144 21.9135 72.522C21.9152 72.5354 21.9179 72.5486 21.9216 72.5615V72.5696C21.922 72.5841 21.9244 72.5986 21.9286 72.6125C21.9286 72.6276 21.9286 72.6357 21.9286 72.6438C21.9297 72.6515 21.9297 72.6594 21.9286 72.667V72.6752L21.6281 77.0344C21.8207 78.0889 22.3021 79.1398 21.997 80.1664Z" fill="white"/>
<path d="M24.2661 69.5849C24.4621 68.6395 24.4772 67.6477 24.9226 66.7452C25.7509 65.0818 28.1706 63.8742 30.7075 63.7965H30.7539C30.9859 63.7965 31.2179 63.7965 31.4499 63.8081C31.1875 64.673 31.0084 65.5609 30.9152 66.4599C30.8293 67.2603 31.0312 68.1558 30.8096 68.9249C30.4535 70.1742 28.5592 70.9328 28.3295 72.21C28.1254 73.3422 29.3793 74.4012 29.1729 75.5531C28.9501 76.7874 27.1533 77.4706 26.4898 78.5691C25.9539 79.4565 26.2044 80.475 25.9272 81.4169C25.6024 82.4911 24.5352 83.4481 23.1304 83.9515C23.0399 83.9828 22.9587 84.0142 22.8683 84.042C22.8207 84.0536 22.7662 84.0733 22.7198 84.0849C22.7035 84.0733 22.6885 84.0571 22.6687 84.042C22.2152 83.6557 21.7071 83.0038 21.286 82.302L21.3173 81.8566C21.593 81.3186 21.8216 80.7577 22.0006 80.1804C22.3057 79.1538 21.8243 78.1028 21.6526 77.0484L21.953 72.6891L22.047 72.6114C22.0813 72.5861 22.1138 72.5586 22.1444 72.529C22.6084 72.1543 23.1095 71.7947 23.468 71.369C23.9134 70.8458 24.1211 70.2716 24.2533 69.6696" fill="white"/>
<path d="M24.2544 69.6479C24.2544 69.6281 24.2626 69.6094 24.2661 69.5849L24.2544 69.6479Z" fill="white"/>
<path d="M24.2661 69.5814C24.2661 69.6058 24.258 69.6244 24.2545 69.6441C24.1223 70.2461 23.9146 70.8203 23.4692 71.3435C23.1107 71.7692 22.6108 72.1288 22.1456 72.5035C22.115 72.5331 22.0825 72.5606 22.0482 72.5858L21.9542 72.667C21.9558 72.6621 21.9558 72.6569 21.9542 72.652C21.9506 72.6386 21.9464 72.6254 21.9414 72.6125C21.9396 72.5994 21.9396 72.5862 21.9414 72.5731V72.565C21.9377 72.552 21.935 72.5389 21.9333 72.5255C21.935 72.5179 21.935 72.51 21.9333 72.5023C21.9351 72.4987 21.936 72.4947 21.936 72.4907C21.936 72.4867 21.9351 72.4827 21.9333 72.4791C21.9304 72.458 21.9262 72.4371 21.9206 72.4165C21.902 72.3225 21.8742 72.2332 21.8463 72.1392C21.8278 72.0801 21.8081 72.0174 21.7849 71.9594C21.7652 71.9061 21.7428 71.8538 21.7176 71.8028C21.7011 71.7519 21.6777 71.7035 21.648 71.659C21.6279 71.6117 21.6042 71.5659 21.5772 71.5221C21.2849 71.0175 20.8348 70.5941 20.394 70.1707C20.3464 70.1197 20.2966 70.0686 20.249 70.0257C20.2014 69.9828 20.1516 69.9318 20.1052 69.8854L19.8233 69.5919C19.69 69.4442 19.5649 69.2893 19.4486 69.1279C19.4486 69.1279 19.7084 64.612 22.0169 63.2455C24.1965 61.944 24.2661 68.8193 24.2661 69.5814Z" fill="white"/>
<path d="M24.2544 69.6479C24.2544 69.6281 24.2626 69.6094 24.2661 69.5849L24.2544 69.6479Z" fill="white"/>
<path d="M21.9507 72.6524V72.6711C21.9519 72.6633 21.9519 72.6555 21.9507 72.6477C21.9507 72.6396 21.9507 72.6314 21.9507 72.6162C21.9489 72.6031 21.9489 72.5897 21.9507 72.5766C21.949 72.6018 21.949 72.6271 21.9507 72.6524Z" fill="white"/>
<path d="M29.7632 65.2419C25.6023 69.7195 23.6466 79.1619 22.8844 84.0339C22.8218 84.4457 22.7684 84.8215 22.7174 85.1602" fill="white"/>
<path d="M30.1472 87.9036L28.2332 99.1974C28.1879 99.5059 28.035 99.7885 27.8015 99.9953C27.568 100.202 27.269 100.32 26.9572 100.327H16.9511C16.6366 100.319 16.3354 100.199 16.1015 99.9889C15.8676 99.7786 15.7164 99.4918 15.6751 99.18L13.9095 87.9036H30.1472Z" fill="white"/>
<path d="M31.965 86.6439C31.9475 86.9783 31.8045 87.2938 31.5645 87.5274C31.3245 87.761 31.0052 87.8953 30.6704 87.9036H13.4131C13.0816 87.8957 12.7651 87.764 12.5258 87.5346C12.2865 87.3051 12.1416 86.9944 12.1197 86.6636C12.0466 85.8585 12.6463 85.1556 13.4131 85.1556H30.6704C31.429 85.1614 32.0264 85.84 31.965 86.6439Z" fill="white"/>
<path d="M21.9624 72.6756C21.9621 72.6502 21.9578 72.625 21.9496 72.6009L21.9624 72.6756Z" fill="white"/>
<path d="M13.4108 62.0495C17.4046 67.2371 19.2838 78.1735 20.0228 83.8193C20.0854 84.3088 20.1388 84.7577 20.1863 85.1591" fill="white"/>
<path d="M22.3138 67.5619C21.8139 69.1012 21.7895 70.6556 21.8498 71.6404C21.8658 71.9584 21.8995 72.2751 21.9508 72.5893" fill="white"/>
<path d="M21.9541 72.6676C21.9553 72.6599 21.9553 72.652 21.9541 72.6442C21.9541 72.6361 21.9541 72.6279 21.9541 72.6127C21.9523 72.5996 21.9523 72.5862 21.9541 72.5731C21.9574 72.6011 21.9629 72.6288 21.9705 72.6559C21.9687 72.6589 21.9664 72.6615 21.9636 72.6635C21.9607 72.6655 21.9575 72.6669 21.9541 72.6676Z" stroke="black" stroke-width="0.664046" stroke-miterlimit="10"/>
<path d="M21.997 80.1664C21.818 80.7438 21.5894 81.3046 21.3138 81.8426C21.2349 81.9946 21.1572 82.1431 21.0713 82.2916C20.7783 82.8416 20.4187 83.3535 20.0007 83.8158C19.9264 83.7914 19.8522 83.7601 19.7861 83.7334C19.771 83.7334 19.7582 83.7218 19.7466 83.7172C18.3952 83.1279 17.3802 82.0224 17.0786 80.7801C16.8095 79.6862 17.0519 78.503 16.5323 77.4764C15.8919 76.212 14.1659 75.4209 13.9501 73.9918C13.7552 72.6554 14.9581 71.4293 14.7621 70.1208C14.5394 68.6395 12.7193 67.7614 12.3829 66.316C12.1683 65.4182 12.3597 64.3823 12.282 63.4566C12.1922 62.422 12.0168 61.3965 11.7577 60.3908C11.883 60.3826 12.0083 60.3792 12.1335 60.3745C14.6855 60.3316 17.2109 61.7665 18.0391 63.7884C18.7073 65.4217 18.3674 67.3078 19.2536 68.839C19.3073 68.938 19.3674 69.0333 19.4334 69.1244C19.5497 69.2858 19.6748 69.4407 19.8081 69.5884L20.09 69.8819C20.1364 69.9283 20.1874 69.9712 20.2338 70.0222C20.2802 70.0733 20.3313 70.1162 20.3788 70.1672C20.8196 70.5883 21.2697 71.014 21.562 71.5186C21.589 71.5624 21.6127 71.6082 21.6328 71.6555C21.6601 71.7013 21.6834 71.7495 21.7024 71.7994C21.7276 71.8503 21.75 71.9026 21.7697 71.956C21.7929 72.014 21.8126 72.072 21.8311 72.1358C21.859 72.2297 21.8868 72.319 21.9054 72.413C21.9054 72.4362 21.9054 72.4559 21.9135 72.4756C21.9216 72.4954 21.9135 72.4907 21.9135 72.4988C21.9152 72.5065 21.9152 72.5144 21.9135 72.522C21.9152 72.5354 21.9179 72.5486 21.9216 72.5615V72.5696C21.922 72.5841 21.9244 72.5986 21.9286 72.6125V72.6125C21.9286 72.6276 21.9286 72.6357 21.9286 72.6438C21.9297 72.6515 21.9297 72.6594 21.9286 72.667V72.6752L21.6281 77.0344C21.8207 78.0889 22.3021 79.1398 21.997 80.1664Z" stroke="black" stroke-width="0.664046" stroke-miterlimit="10"/>
<path d="M24.2661 69.5849C24.4621 68.6395 24.4772 67.6477 24.9226 66.7452C25.7509 65.0818 28.1706 63.8742 30.7075 63.7965H30.7539C30.9859 63.7965 31.2179 63.7965 31.4499 63.8081C31.1875 64.673 31.0084 65.5609 30.9152 66.4599C30.8293 67.2603 31.0312 68.1558 30.8096 68.9249C30.4535 70.1742 28.5592 70.9328 28.3295 72.21C28.1254 73.3422 29.3793 74.4012 29.1729 75.5531C28.9501 76.7874 27.1533 77.4706 26.4898 78.5691C25.9539 79.4565 26.2044 80.475 25.9272 81.4169C25.6024 82.4911 24.5352 83.4481 23.1304 83.9515C23.0399 83.9828 22.9587 84.0142 22.8683 84.042C22.8207 84.0536 22.7662 84.0733 22.7198 84.0849C22.7035 84.0733 22.6885 84.0571 22.6687 84.042C22.2152 83.6557 21.7071 83.0038 21.286 82.302L21.3173 81.8566C21.593 81.3186 21.8216 80.7577 22.0006 80.1804C22.3057 79.1538 21.8243 78.1028 21.6526 77.0484L21.953 72.6891L22.047 72.6114C22.0813 72.5861 22.1138 72.5586 22.1444 72.529C22.6084 72.1543 23.1095 71.7947 23.468 71.369C23.9134 70.8458 24.1211 70.2716 24.2533 69.6696" stroke="black" stroke-width="0.664046" stroke-miterlimit="10"/>
<path d="M24.2544 69.6479C24.2544 69.6281 24.2626 69.6094 24.2661 69.5849" stroke="black" stroke-width="0.664046" stroke-miterlimit="10"/>
<path d="M24.2661 69.5814C24.2661 69.6058 24.258 69.6244 24.2545 69.6441C24.1223 70.2461 23.9146 70.8203 23.4692 71.3435C23.1107 71.7692 22.6108 72.1288 22.1456 72.5035C22.115 72.5331 22.0825 72.5606 22.0482 72.5858L21.9542 72.667C21.9558 72.6621 21.9558 72.6569 21.9542 72.652C21.9506 72.6386 21.9464 72.6254 21.9414 72.6125V72.6125C21.9396 72.5994 21.9396 72.5862 21.9414 72.5731V72.565C21.9377 72.552 21.935 72.5389 21.9333 72.5255C21.935 72.5179 21.935 72.51 21.9333 72.5023C21.9351 72.4987 21.936 72.4947 21.936 72.4907C21.936 72.4867 21.9351 72.4827 21.9333 72.4791C21.9304 72.458 21.9262 72.4371 21.9206 72.4165C21.902 72.3225 21.8742 72.2332 21.8463 72.1392C21.8278 72.0801 21.8081 72.0174 21.7849 71.9594C21.7652 71.9061 21.7428 71.8538 21.7176 71.8028C21.7011 71.7519 21.6777 71.7035 21.648 71.659C21.6279 71.6117 21.6042 71.5659 21.5772 71.5221C21.2849 71.0175 20.8348 70.5941 20.394 70.1707C20.3464 70.1197 20.2966 70.0686 20.249 70.0257C20.2014 69.9828 20.1516 69.9318 20.1052 69.8854L19.8233 69.5919C19.69 69.4442 19.5649 69.2893 19.4486 69.1279C19.4486 69.1279 19.7084 64.612 22.0169 63.2455C24.1965 61.944 24.2661 68.8193 24.2661 69.5814Z" stroke="black" stroke-width="0.664046" stroke-miterlimit="10"/>
<path d="M24.2544 69.6479C24.2544 69.6281 24.2626 69.6094 24.2661 69.5849" stroke="black" stroke-width="0.664046" stroke-miterlimit="10"/>
<path d="M21.9507 72.6524V72.6711C21.9519 72.6633 21.9519 72.6555 21.9507 72.6477C21.9507 72.6396 21.9507 72.6314 21.9507 72.6162C21.9489 72.6031 21.9489 72.5897 21.9507 72.5766C21.949 72.6018 21.949 72.6271 21.9507 72.6524V72.6524Z" stroke="black" stroke-width="0.664046" stroke-miterlimit="10"/>
<path d="M29.7632 65.2419C25.6023 69.7195 23.6466 79.1619 22.8844 84.0339C22.8218 84.4457 22.7684 84.8215 22.7174 85.1602" stroke="black" stroke-width="0.664046" stroke-miterlimit="10"/>
<path d="M30.1472 87.9036L28.2332 99.1974C28.1879 99.5059 28.035 99.7885 27.8015 99.9953C27.568 100.202 27.269 100.32 26.9572 100.327H16.9511C16.6366 100.319 16.3354 100.199 16.1015 99.9889C15.8676 99.7786 15.7164 99.4918 15.6751 99.18L13.9095 87.9036H30.1472Z" stroke="black" stroke-width="0.664046" stroke-miterlimit="10"/>
<path d="M31.965 86.6439C31.9475 86.9783 31.8045 87.2938 31.5645 87.5274C31.3245 87.761 31.0052 87.8953 30.6704 87.9036H13.4131C13.0816 87.8957 12.7651 87.764 12.5258 87.5346C12.2865 87.3051 12.1416 86.9944 12.1197 86.6636V86.6636C12.0466 85.8585 12.6463 85.1556 13.4131 85.1556H30.6704C31.429 85.1614 32.0264 85.84 31.965 86.6439Z" stroke="black" stroke-width="0.664046" stroke-miterlimit="10"/>
<path d="M21.9624 72.6756C21.9621 72.6502 21.9578 72.625 21.9496 72.6009L21.9624 72.6756Z" stroke="black" stroke-width="0.664046" stroke-miterlimit="10"/>
<path d="M13.4108 62.0495C17.4046 67.2371 19.2838 78.1735 20.0228 83.8193C20.0854 84.3088 20.1388 84.7577 20.1863 85.1591" stroke="black" stroke-width="0.664046" stroke-miterlimit="10"/>
<path d="M22.3138 67.5619C21.8139 69.1012 21.7895 70.6556 21.8498 71.6404C21.8658 71.9584 21.8995 72.2751 21.9508 72.5893" stroke="black" stroke-width="0.664046" stroke-miterlimit="10"/>
<path d="M87.2691 57.7471C87 57.8399 86.7355 57.9385 86.4711 58.0394L86.2553 58.1218C85.6312 58.3538 85.0187 58.602 84.4248 58.8596C84.2206 58.9454 84.0211 59.0312 83.8205 59.1252C83.6581 59.196 83.4991 59.2656 83.3402 59.3398L83.2648 59.3758C83.0525 59.4732 82.8414 59.5706 82.6338 59.6727C82.4261 59.7748 82.1872 59.8873 81.9679 59.9998C81.8519 60.0509 81.7522 60.1054 81.6466 60.1611C81.4424 60.262 81.2418 60.3676 81.0411 60.4731C80.9842 60.5044 80.9251 60.5311 80.8752 60.5625C80.671 60.6727 80.4669 60.7817 80.2662 60.8954C80.1003 60.9847 79.9414 61.074 79.7778 61.168C74.0275 64.4473 69.131 69.0358 65.4855 74.5613C57.3342 86.8075 56.9595 100.313 56.9444 101.509L56.9247 101.474C55.9491 95.1351 54.4562 89.6425 52.5805 84.8865L52.7278 84.4028L52.4714 84.6023C52.4714 84.6023 52.4714 84.6023 52.4714 84.5942C52.8392 76.5403 54.4156 69.8065 56.6764 64.1851L56.8887 64.2327C56.847 64.1457 56.8052 64.0564 56.7634 63.9705C60.7144 54.2915 66.7046 47.944 72.0209 43.9176C78.2849 39.1755 83.629 37.6397 83.629 37.6397C86.4827 41.1661 87.1323 51.9425 87.2691 57.7471Z" stroke="black" stroke-width="0.664046" stroke-miterlimit="10"/>
<path d="M87.6485 99.412C86.8164 99.245 86.0013 99.0454 85.2032 98.8134C81.9297 97.8564 78.1272 96.2232 76.8234 92.7896C76.4971 91.9024 76.3942 90.9486 76.5239 90.0123C76.6536 89.0761 77.0118 88.1861 77.5669 87.4211C78.1551 86.6052 78.9819 85.992 79.9333 85.666C82.0039 84.9967 84.2949 86.0395 85.8308 87.5823C87.3666 89.1251 88.3549 91.111 89.5579 92.9253C88.4698 90.4893 87.3655 87.9825 87.2158 85.3192C87.0998 83.2428 87.6636 80.9912 89.095 79.431C90.4128 77.9949 93.4937 76.8709 95.308 77.923C96.5051 78.619 96.983 80.0992 97.1883 81.468C97.7521 85.2136 97.0283 89.0196 96.3079 92.7385C96.7916 90.7503 97.3113 88.7435 98.2973 86.9501C99.2833 85.1568 100.795 83.5722 102.731 82.9075C104.087 82.4435 105.697 82.4934 106.833 83.3715C107.892 84.1835 108.365 85.5674 108.511 86.8968C108.755 89.1263 108.23 91.3871 107.328 93.4392C103.96 101.099 94.6213 100.804 87.6485 99.412Z" fill="white"/>
<path d="M95.2465 95.62C95.2465 95.62 100.437 97.0618 102.27 89.8466L95.2465 95.62Z" fill="white"/>
<path d="M92.9369 83.3043C91.4939 86.5755 92.9369 96.3902 92.9369 96.3902V83.3043Z" fill="white"/>
<path d="M88.1264 95.3972C87.9095 95.3601 85.8273 95.069 84.0525 94.2535C82.6779 93.6224 81.4866 92.6759 81.4866 91.2908" fill="white"/>
<path d="M84.4688 91.292C84.4688 91.292 82.44 93.6572 84.0524 94.2546L84.4688 91.292Z" fill="white"/>
<path d="M83.1222 96.4064C83.411 96.0051 84.9132 96.8101 85.8946 94.9158L83.1222 96.4064Z" fill="white"/>
<path d="M92.2954 87.6345C91.7827 87.2494 90.4394 87.6345 90.2422 84.5547L92.2954 87.6345Z" fill="white"/>
<path d="M92.5193 90.5206C92.5193 90.5206 94.765 89.7086 94.765 87.9512L92.5193 90.5206Z" fill="white"/>
<path d="M97.3459 95.6617C97.3459 95.6617 98.5175 92.6376 98.9989 91.2908L97.3459 95.6617Z" fill="white"/>
<path d="M100.984 92.7722C100.984 92.7722 102.27 93.7918 103.81 92.1562L100.984 92.7722Z" fill="white"/>
<path d="M100.984 91.292C100.984 91.292 100.153 90.9312 100.538 88.856L100.984 91.292Z" fill="white"/>
<path d="M87.6485 99.412C86.8087 99.296 86.0001 99.0466 85.2032 98.8134C81.9297 97.8564 78.1272 96.2232 76.8234 92.7896C76.4971 91.9024 76.3942 90.9486 76.5239 90.0124C76.6536 89.0761 77.0118 88.1861 77.5669 87.4211C78.1551 86.6052 78.9819 85.992 79.9333 85.666C82.0039 84.9967 84.2949 86.0395 85.8308 87.5823C87.3666 89.1251 88.3549 91.111 89.5579 92.9253C88.4698 90.4893 87.3655 87.9825 87.2158 85.3192C87.0998 83.2428 87.6636 80.9912 89.095 79.431C90.4128 77.9949 93.4937 76.8709 95.308 77.923C96.5051 78.619 96.983 80.0992 97.1883 81.468C97.7521 85.2136 97.0283 89.0196 96.3079 92.7385C96.7916 90.7503 97.3113 88.7435 98.2973 86.9501C99.2833 85.1568 100.795 83.5722 102.731 82.9075C104.087 82.4435 105.697 82.4934 106.833 83.3715C107.892 84.1835 108.365 85.5674 108.511 86.8968C108.755 89.1263 108.262 91.4022 107.328 93.4392C103.906 100.897 94.4948 100.333 87.6485 99.412Z" stroke="black" stroke-width="0.664046" stroke-miterlimit="10"/>
<path d="M95.2465 95.62C95.2465 95.62 100.437 97.0618 102.27 89.8466" stroke="black" stroke-width="0.664046" stroke-miterlimit="10"/>
<path d="M92.9369 83.3043C91.4939 86.5755 92.9369 96.3902 92.9369 96.3902" stroke="black" stroke-width="0.664046" stroke-miterlimit="10"/>
<path d="M88.1264 95.3972C87.9095 95.3601 85.8273 95.069 84.0525 94.2535C82.6779 93.6224 81.4866 92.6759 81.4866 91.2908" stroke="black" stroke-width="0.664046" stroke-miterlimit="10"/>
<path d="M84.4688 91.292C84.4688 91.292 82.44 93.6572 84.0524 94.2546" stroke="black" stroke-width="0.664046" stroke-miterlimit="10"/>
<path d="M83.1222 96.4064C83.411 96.0051 84.9132 96.8101 85.8946 94.9158" stroke="black" stroke-width="0.664046" stroke-miterlimit="10"/>
<path d="M92.2954 87.6345C91.7827 87.2494 90.4394 87.6345 90.2422 84.5547" stroke="black" stroke-width="0.664046" stroke-miterlimit="10"/>
<path d="M92.5193 90.5206C92.5193 90.5206 94.765 89.7086 94.765 87.9512" stroke="black" stroke-width="0.664046" stroke-miterlimit="10"/>
<path d="M97.3459 95.6617C97.3459 95.6617 98.5175 92.6376 98.9989 91.2908" stroke="black" stroke-width="0.664046" stroke-miterlimit="10"/>
<path d="M100.984 92.7722C100.984 92.7722 102.27 93.7918 103.81 92.1562" stroke="black" stroke-width="0.664046" stroke-miterlimit="10"/>
<path d="M100.984 91.292C100.984 91.292 100.153 90.9312 100.538 88.856" stroke="black" stroke-width="0.664046" stroke-miterlimit="10"/>
<path d="M101.338 73.2459C102.375 74.1396 103.301 75.1549 104.095 76.27C105.555 78.2664 106.381 80.6559 106.466 83.1279" stroke="black" stroke-width="0.664046" stroke-miterlimit="10"/>
<path d="M65.1606 32.3501C67.2486 31.0926 69.426 29.9756 71.7413 29.1868C77.5147 27.2148 83.9515 27.6521 88.5254 31.98C92.4903 35.728 94.3648 41.296 94.7476 46.632C94.7476 46.7097 94.7604 46.7921 94.7639 46.8744C94.939 49.6237 94.7952 52.6594 94.7755 55.6974" stroke="black" stroke-width="0.664046" stroke-miterlimit="10"/>
<path d="M19.648 55.5292C20.1711 52.1896 19.532 49.0483 19.184 45.6112C18.2885 36.656 21.1363 25.9411 31.4521 24.6013C37.0573 23.8705 41.6068 25.9643 45.3965 29.9802C46.2479 30.8815 47.0994 31.9406 48.0007 32.9637" stroke="black" stroke-width="0.664046" stroke-miterlimit="10"/>
<path d="M15.6252 85.1046C15.6252 85.1046 7.81259 81.664 8.59443 75.1993C8.81251 73.3746 9.67207 71.7425 10.7578 70.2426" stroke="black" stroke-width="0.664046" stroke-miterlimit="10"/>
<path d="M86.188 89.4151C85.8911 89.2009 85.5817 88.9975 85.26 88.805C82.0515 86.906 77.6794 86.1694 74.0138 85.949C73.79 85.9328 73.5696 85.9212 73.3515 85.9119C73.0626 85.8992 72.7799 85.8236 72.5232 85.6904C72.2573 85.5561 72.0262 85.362 71.8481 85.1231C71.6683 84.4165 71.4522 83.7196 71.2008 83.0351L70.6858 80.7151C70.4937 80.0441 70.343 79.3619 70.2346 78.6724C69.701 75.1842 69.3066 70.8493 69.1674 69.2265C69.1841 69.2336 69.2016 69.2387 69.2196 69.2416L70.8122 69.752C70.818 69.7515 70.8239 69.7515 70.8296 69.752L71.3946 69.9178C73.5846 70.5396 75.8826 71.0059 78.1643 71.0558C80.315 71.101 82.6744 70.7484 84.5118 69.5582C84.6665 69.4608 84.8165 69.3564 84.9619 69.245C86.3794 68.1778 87.3643 66.5399 87.9222 64.8776C88.9489 61.803 89.1705 58.5166 88.566 55.332C88.3946 54.4551 88.1537 53.5932 87.8457 52.7545C87.0337 50.5215 85.8609 48.4288 84.854 46.2585C84.622 45.7527 84.2903 45.2226 84.2497 44.6612C84.201 43.9918 84.5443 43.348 84.6522 42.6973C84.778 41.9153 84.8362 41.124 84.8262 40.332C84.8248 39.3926 84.6449 38.4621 84.2961 37.5898C83.9956 36.8567 83.462 35.6271 82.5143 35.6723C82.2104 34.7002 81.7023 33.575 80.808 33.4486C80.5758 33.413 80.339 33.4706 80.1491 33.6087C80.0835 33.5146 80.0126 33.4244 79.9368 33.3384C79.5633 32.9185 78.8568 32.5403 78.2896 32.7584C77.1644 33.2038 77.6794 34.7524 78.2374 35.9275C77.9502 35.8657 77.6556 35.8462 77.3628 35.8695C76.7074 35.9275 75.9487 36.192 75.6947 36.823C75.5566 37.171 75.6054 37.7986 75.958 37.9958C76.4058 38.2406 76.9556 38.0782 77.4034 38.3078C77.9033 38.5654 78.0994 39.2556 78.0263 39.7776C78.0121 39.9822 77.9305 40.1764 77.7943 40.3297C77.0032 41.1208 76.4603 38.9377 76.1598 38.5781C75.7515 38.0874 75.153 38.1768 74.7272 38.5909C73.8862 39.4029 74.2516 41.0385 74.6043 42.0198C74.9871 43.094 75.4847 44.2238 76.2793 45.0602C77.6006 46.4464 77.7456 48.6562 78.0947 50.4438C78.2386 51.1827 78.3766 51.9286 78.488 52.6733C78.7084 54.1186 78.836 55.5733 78.72 57.0326C78.6906 57.4331 78.5788 57.8233 78.3914 58.1786C78.2041 58.5339 77.9454 58.8466 77.6315 59.0971C77.3175 59.3477 76.9552 59.5306 76.5672 59.6344C76.1792 59.7383 75.7739 59.7608 75.3768 59.7006C74.4314 59.5567 73.3248 59.385 72.1462 59.2006C72.1462 59.2006 72.1555 59.1913 72.1613 59.189C70.5547 58.6426 69.1337 58.5754 67.7197 58.5011C63.7304 57.884 60.1484 57.304 60.1484 57.304C60.0668 57.2889 59.9931 57.246 59.9397 57.1825C59.8864 57.119 59.8568 57.0389 59.856 56.956L59.8073 52.5271C60.0799 52.8612 60.6715 52.9076 61.0334 52.7139C61.1773 52.6405 61.2956 52.5254 61.3728 52.3836C61.4501 52.2418 61.4826 52.0799 61.4661 51.9193C61.7008 51.9173 61.9314 51.858 62.1378 51.7464C62.199 51.7122 62.2575 51.6735 62.3129 51.6304C62.4275 51.5278 62.5198 51.4028 62.5842 51.2632C62.6486 51.1235 62.6838 50.9722 62.6876 50.8184C62.6925 50.7335 62.6883 50.6484 62.6748 50.5644C62.6748 50.5331 62.6656 50.5029 62.6598 50.4693C62.647 50.4043 62.6319 50.3405 62.6134 50.2721C62.6041 50.2326 62.5925 50.1932 62.5797 50.1561C62.5496 50.0401 62.5159 49.9241 62.4904 49.8081C62.5039 49.8098 62.5175 49.8098 62.531 49.8081C62.6455 49.8016 62.7592 49.7853 62.8709 49.7594C62.9771 49.734 63.0807 49.6991 63.1806 49.655C63.2366 49.6301 63.2912 49.6023 63.3442 49.5714C63.3533 49.5682 63.3616 49.5631 63.3685 49.5564C63.4583 49.5013 63.5433 49.4388 63.6226 49.3696C63.6494 49.3475 63.675 49.3239 63.6991 49.2988C63.7444 49.2563 63.7874 49.2114 63.8279 49.1643C63.8797 49.1036 63.9281 49.0401 63.9729 48.974C63.9948 48.946 64.0142 48.9161 64.0309 48.8847C64.1919 48.6264 64.3094 48.3435 64.3789 48.0472C64.3847 48.0194 64.3916 47.9915 64.3974 47.9648C64.6294 46.8605 64.2814 45.5996 63.3117 45.1878C63.118 45.1054 62.4312 45.0254 62.4312 44.7342C62.4316 44.7134 62.4347 44.6927 62.4405 44.6728C62.4394 44.6686 62.4394 44.6642 62.4405 44.66C62.4588 44.6167 62.4852 44.5774 62.5182 44.544C62.5333 44.5254 62.5542 44.5069 62.5728 44.4883C62.6134 44.4524 62.6586 44.4187 62.7015 44.3839C62.7456 44.3548 62.7878 44.3231 62.828 44.2888C62.845 44.2746 62.8613 44.2595 62.8767 44.2436C62.9068 44.2099 62.9382 44.1763 62.966 44.1426C62.9937 44.1095 63.0192 44.0746 63.0426 44.0382C63.0669 44.0011 63.0913 43.964 63.1133 43.9222C63.1375 43.8857 63.1581 43.8468 63.1748 43.8062C63.2098 43.7374 63.2385 43.6656 63.2606 43.5916C63.2998 43.4701 63.3243 43.3443 63.3337 43.217C63.3337 43.1717 63.3337 43.1253 63.3337 43.0789C63.3337 42.0604 62.5032 41.006 61.4534 40.8946C61.2836 40.8761 61.1119 40.8963 60.9511 40.9538C60.872 40.9811 60.7946 41.0129 60.7191 41.0489L60.6031 41.1034C60.5242 41.1406 60.4442 41.18 60.3618 41.2194C60.2924 41.2525 60.2171 41.2714 60.1402 41.2751C60.1227 41.2745 60.1052 41.2722 60.088 41.2682L60.0544 41.2589C60.03 41.2535 60.0078 41.241 59.9906 41.2229C59.9702 41.2081 59.9532 41.1891 59.9407 41.1672C59.9303 41.1459 59.9229 41.1233 59.9187 41.1C59.9179 41.0985 59.9174 41.0969 59.9174 41.0953C59.9174 41.0937 59.9179 41.0921 59.9187 41.0907C59.9128 41.0636 59.9101 41.036 59.9106 41.0083C59.9104 40.951 59.9186 40.8939 59.9349 40.839C59.9677 40.7191 59.9841 40.5954 59.9836 40.4712C59.9835 40.4262 59.9804 40.3813 59.9744 40.3367C59.9685 40.2747 59.9592 40.2132 59.9465 40.1522C59.8329 39.7035 59.5632 39.3099 59.1856 39.0421C58.1218 38.2904 56.1278 38.287 55.578 39.6801C55.5664 39.701 55.5606 39.723 55.5513 39.7439C55.4805 39.6616 55.4098 39.5757 55.339 39.4899C55.29 39.4584 55.2389 39.4305 55.1859 39.4064C54.4493 39.085 53.3948 39.2231 52.8578 39.8518C52.4123 40.3738 52.2662 41.18 52.6617 41.7716C52.4399 41.4851 52.1391 41.2697 51.7964 41.1522C51.8373 41.2669 51.8918 41.3763 51.9588 41.4781C51.9273 41.4354 51.8936 41.3943 51.8578 41.3552C51.83 41.3238 51.8022 41.296 51.7743 41.2693C51.7465 41.2426 51.707 41.2044 51.6734 41.1765C51.6398 41.1487 51.6026 41.1185 51.5667 41.0907C50.8765 40.5849 49.8603 40.5327 49.2165 41.1649C48.7131 41.6591 48.6087 42.3423 48.7873 43.0047C48.966 43.667 49.394 44.1276 49.7153 44.6983C48.6261 44.972 47.7549 46.1796 48.0983 47.3118C48.17 47.5459 48.2956 47.7601 48.465 47.9369C48.6344 48.1138 48.843 48.2485 49.0738 48.3302C49.1565 48.351 49.2407 48.3653 49.3256 48.3732C49.3539 48.3761 49.3814 48.3848 49.4062 48.3988C49.4311 48.4128 49.4528 48.4317 49.47 48.4545C49.4872 48.4772 49.4995 48.5033 49.5062 48.531C49.5129 48.5587 49.5138 48.5875 49.5088 48.6156C49.4915 48.6917 49.4826 48.7695 49.4822 48.8476C49.4829 49.0345 49.5317 49.218 49.6239 49.3806C49.7162 49.5431 49.8487 49.6792 50.0088 49.7756C50.0326 49.7889 50.0534 49.8069 50.0699 49.8285C50.0865 49.8501 50.0985 49.8748 50.1051 49.9012C50.1117 49.9276 50.1129 49.9551 50.1085 49.982C50.1041 50.0089 50.0943 50.0346 50.0796 50.0575C49.9183 50.2868 49.8235 50.5563 49.8057 50.8361C49.7879 51.1159 49.8478 51.3952 49.9786 51.6432C50.3371 52.3612 51.2152 52.9842 52.0434 52.7382C52.3099 52.6575 52.5405 52.4875 52.6965 52.2568C52.7132 52.2394 52.7276 52.2199 52.7394 52.1988C52.7425 52.1919 52.7468 52.1856 52.7522 52.1803C52.8715 52.0022 52.9507 51.8004 52.9842 51.5887C53.1883 51.9122 53.4167 52.2197 53.6674 52.5086L53.8182 52.6768L53.36 55.5025L53.2928 56.0118C53.2679 56.1879 53.1803 56.3492 53.046 56.466C52.9118 56.5828 52.7399 56.6472 52.562 56.6474C52.461 56.6474 52.3566 56.6474 52.2557 56.6474C52.0504 56.6474 51.8474 56.6532 51.6456 56.659C51.0319 56.6741 50.4206 56.702 49.8104 56.7391C49.3464 56.7692 48.8929 56.8029 48.437 56.8435C48.205 56.862 47.9823 56.8829 47.7526 56.9073C47.5229 56.9316 47.2956 56.9537 47.0682 56.978C46.6239 57.0279 46.1762 57.079 45.7307 57.1381C45.1936 57.2089 44.66 57.282 44.123 57.3585C43.2831 57.4815 42.4456 57.616 41.6046 57.761C40.7856 57.9026 39.9702 58.0499 39.1512 58.1995C38.0005 58.4118 36.8382 58.5893 35.6712 58.7795C35.3648 58.829 35.0513 58.8125 34.7518 58.7312C34.4522 58.6499 34.1735 58.5056 33.9341 58.308C33.6948 58.1104 33.5003 57.8639 33.3638 57.5852C33.2273 57.3064 33.1518 57.0018 33.1424 56.6915C33.0113 52.8635 35.1794 45.8815 35.1794 45.8815C35.2292 45.3386 35.8754 44.9535 36.2535 44.6449C37.3358 43.79 37.975 42.2588 38.3485 40.97C38.613 40.0502 38.8635 38.737 38.0852 37.983C37.6583 37.5689 37.0597 37.4796 36.6526 37.9703C36.3521 38.3322 35.8092 40.513 35.017 39.7219C34.8807 39.5685 34.7991 39.3744 34.785 39.1697C34.7165 38.6489 34.901 37.9587 35.4067 37.7C35.8545 37.468 36.4043 37.6327 36.8521 37.388C37.2001 37.1908 37.2534 36.5597 37.1154 36.2152C36.8614 35.5842 36.1039 35.3197 35.4473 35.2617C35.1545 35.2383 34.8599 35.2579 34.5727 35.3197C35.1306 34.1446 35.6468 32.596 34.5205 32.1517C33.9532 31.9278 33.2445 32.3048 32.8733 32.7248C32.7978 32.8108 32.7274 32.901 32.6622 32.995C32.4716 32.8573 32.2346 32.7998 32.0021 32.835C31.1031 32.9614 30.6008 34.0866 30.2969 35.0598C29.3585 35.0134 28.8272 36.2198 28.5233 36.9518C28.1789 37.7949 27.9959 38.6952 27.9839 39.6059C27.9549 40.5746 28.0233 41.5438 28.188 42.4989C28.2646 42.9107 28.4026 43.3028 28.5012 43.7053C28.6091 44.1438 28.492 44.5788 28.333 44.9906C27.7101 46.567 26.832 48.0426 26.1731 49.6074C25.4587 51.2635 24.8859 52.9771 24.461 54.73C23.642 58.1902 23.4738 61.8593 24.4308 65.3103C26.2404 71.8318 35.409 69.6905 40.6615 67.8623C42.8574 67.099 44.3735 66.3868 44.3735 66.3868C44.3735 66.3868 44.3851 66.8926 44.3851 67.7486V67.8646C44.3793 69.0246 44.2784 78.2791 42.7194 85.0744L42.6672 85.1637C42.6799 85.1544 42.7043 85.1544 42.7194 85.2368C42.6338 85.4224 42.4966 85.5794 42.3243 85.6892C42.1519 85.799 41.9516 85.857 41.7473 85.8562C38.0144 85.8412 22.2952 86.3713 25.2753 96.5282C25.8332 98.4364 27.2902 99.6602 29.3353 100.384C30.9593 100.964 32.9556 101.216 35.1666 101.234H35.1817C30.8595 102.053 29.8538 108.483 34.6759 109.455C36.5319 109.829 38.0016 108.627 39.6697 108.114C40.6231 107.832 41.6156 107.706 42.6092 107.741C43.2575 107.756 43.904 107.817 44.544 107.922C51.5517 109.069 58.6628 109.456 65.7535 109.075C70.5478 108.811 75.4348 108.209 79.9844 106.605C83.4133 105.394 87.1764 103.275 88.8653 99.9932C89.4638 98.8382 89.7731 97.5553 89.7666 96.2545C89.762 93.1631 88.3329 90.9637 86.188 89.4151Z" fill="white"/>
<path d="M13.8528 100.21L13.6776 100.044" stroke="black" stroke-width="0.664046" stroke-miterlimit="10"/>
<path d="M71.2043 82.8658L70.6881 80.54C70.4963 79.8689 70.346 79.1867 70.2381 78.4972C69.7045 75.0091 69.3101 70.6753 69.1697 69.0525L70.8331 69.5826L70.2531 68.2915C70.2531 68.2915 68.3426 61.8616 72.1648 59.0301C69.4005 58.0893 67.1861 58.573 64.5993 57.978C63.6029 57.746 62.5507 57.543 61.3884 57.3527L60.5474 57.2054C60.5138 59.4906 58.9234 60.0091 57.6149 60.2574C54.3936 60.8745 52.1629 58.5243 52.2557 56.4781C48.6795 56.5187 45.1449 56.9908 41.6058 57.5917C42.0628 58.9326 43.0256 62.9509 40.317 67.7022L40.665 67.6906C42.8609 66.9262 44.377 66.2151 44.377 66.2151C44.377 66.2151 44.3898 66.7209 44.3898 67.577V67.693C44.384 68.846 44.2831 78.1074 42.724 84.9016C42.608 85.1231 42.6985 84.8505 42.724 85.0964C42.6294 85.2853 42.5644 85.4875 42.5315 85.6962L42.6069 85.3957C42.1869 85.9978 43.2379 86.7274 44.7563 87.0951C48.7259 88.0649 70.6069 89.7631 71.8423 85.6962C71.9151 85.4536 71.9175 85.1953 71.8493 84.9514C71.6698 84.2457 71.4545 83.5496 71.2043 82.8658Z" fill="#353642"/>
<path d="M42.608 107.566C41.6156 107.532 40.6243 107.659 39.6721 107.94C38.0028 108.452 36.5308 109.655 34.6771 109.28C29.855 108.308 30.8619 101.878 35.184 101.059C35.5982 101.05 36.0123 101.048 36.4229 101.048H36.4508C38.4413 101.048 40.3808 101.1 41.9723 100.55C41.8227 100.688 37.9448 104.127 42.608 107.566Z" fill="#3FBDF1"/>
<path d="M60.5439 57.2008V57.2066C60.5102 59.4918 58.9199 60.0103 57.6114 60.2585C54.3901 60.8756 52.1594 58.5255 52.2522 56.4792" stroke="black" stroke-width="0.664046" stroke-miterlimit="10"/>
<path d="M35.1873 101.059C30.8652 101.878 29.8583 108.308 34.6804 109.28C36.5364 109.655 38.0061 108.452 39.6754 107.94C40.6284 107.659 41.6205 107.532 42.6137 107.566C43.2606 107.583 43.9055 107.646 44.5439 107.752C51.5513 108.902 58.6624 109.291 65.7533 108.912C70.5476 108.648 75.4335 108.047 79.9831 106.443C83.4132 105.231 87.1751 103.111 88.864 99.8308C89.4629 98.6755 89.7722 97.3921 89.7653 96.0909C89.7653 92.996 88.3327 90.7967 86.1925 89.2469C85.8944 89.0323 85.5847 88.8305 85.2645 88.6368C82.056 86.7378 77.6851 86.0012 74.0195 85.7808C73.7956 85.7658 73.5741 85.753 73.3571 85.7437C73.0682 85.7319 72.7855 85.6566 72.5289 85.5233C72.2625 85.3897 72.0313 85.1954 71.8538 84.9561C71.681 84.7292 71.5595 84.4676 71.4977 84.1893L71.2065 82.8669L70.6903 80.5411L70.2379 78.4972C69.7043 75.0091 69.3099 70.6753 69.1695 69.0525" stroke="black" stroke-width="0.664046" stroke-miterlimit="10"/>
<path d="M75.5357 97.94C74.1054 101.21 70.5685 100.091 66.6825 97.737C64.2709 96.2765 62.2131 96.0689 60.9985 96.113C62.7107 95.9599 64.2071 95.4321 64.6282 93.496C64.9681 91.9231 64.0818 90.48 62.5483 90.016C66.2348 89.8536 70.0176 90.132 73.0173 92.452C73.0196 92.452 76.9683 94.6665 75.5357 97.94Z" fill="#3FBDF1"/>
<path d="M62.524 49.6248C62.511 49.6265 62.4977 49.6265 62.4846 49.6248C62.5206 49.8058 62.589 49.9995 62.6342 50.192C62.6706 50.3376 62.6862 50.4876 62.6806 50.6375C62.6319 51.3393 62.1343 51.7198 61.4592 51.7383C61.4763 51.8994 61.4442 52.0618 61.3672 52.2043C61.2902 52.3468 61.1718 52.4625 61.0276 52.5364C60.6657 52.7266 60.073 52.6837 59.8004 52.3485C59.4779 51.9599 59.638 51.4773 59.834 51.0516C59.9048 50.902 59.9755 50.7604 60.0335 50.6317C60.1043 50.4716 60.1658 50.3127 60.2203 50.1503C60.4134 49.5493 60.563 48.9353 60.668 48.3128C60.7964 47.6841 60.8813 47.0473 60.9221 46.407C60.8792 46.2515 60.907 46.0265 60.8455 45.8641C60.7561 45.6134 60.5947 45.3947 60.3815 45.2354C59.9407 44.9106 59.3538 44.9314 58.8851 44.6438C58.4608 44.3795 58.1261 43.9934 57.9246 43.536C57.8852 43.4408 57.8481 43.3179 57.7924 43.2112C57.7676 43.1532 57.7299 43.1016 57.6822 43.0604C57.4711 42.8829 57.3481 43.1961 57.2182 43.3179C57.085 43.4409 56.9272 43.5341 56.7552 43.5913C56.5831 43.6485 56.4009 43.6684 56.2206 43.6496C56.0843 43.6317 55.9516 43.5925 55.8274 43.5336C55.7361 43.484 55.6509 43.4241 55.5733 43.355C55.4812 43.2654 55.374 43.1927 55.2566 43.1404C55.0363 43.058 55.0246 43.4223 54.9933 43.5487C54.9724 43.658 54.927 43.7611 54.8605 43.8503C54.794 43.9395 54.7081 44.0125 54.6094 44.0638C54.4902 44.1224 54.3594 44.1537 54.2266 44.1554C54.0718 44.1616 53.9171 44.1408 53.7695 44.0939C53.627 44.0516 53.4914 43.9887 53.367 43.9072C53.3447 43.8921 53.3186 43.8837 53.2917 43.8827C53.2649 43.8818 53.2383 43.8884 53.2149 43.9018C53.1916 43.9152 53.1725 43.9349 53.1599 43.9586C53.1472 43.9823 53.1414 44.0091 53.1431 44.0359C53.1861 45.2354 52.0643 45.653 51.6038 45.7759C51.4491 47.7555 51.9329 49.7326 52.9842 51.417C52.9454 51.6607 52.8461 51.8909 52.6954 52.0863C51.9379 52.2766 51.0633 52.0701 50.735 51.417C50.387 50.721 50.4345 49.757 50.9751 49.2606C50.6004 49.2026 50.496 48.6492 50.7106 48.3244C50.7292 48.2931 50.7373 48.2746 50.7257 48.2444C50.6793 48.118 50.1283 48.0124 49.9775 47.966C49.7623 47.8892 49.568 47.7632 49.4102 47.5981C49.2523 47.4329 49.1351 47.2332 49.0681 47.0148C48.7491 45.9627 49.5587 44.8398 50.5703 44.5858C50.2698 44.0545 49.8743 43.6253 49.7061 43.0116C49.5379 42.398 49.633 41.76 50.1016 41.296C50.2923 41.1147 50.5252 40.9839 50.7792 40.9154C51.0332 40.8469 51.3003 40.843 51.5563 40.9039C51.7055 41.0124 51.8377 41.1426 51.9483 41.2902C51.8802 41.1895 51.8256 41.0803 51.7859 40.9654C52.1292 41.0819 52.4303 41.2975 52.6513 41.5848C52.2557 40.9932 52.403 40.1859 52.8473 39.6639C53.3844 39.0352 54.44 38.8971 55.1754 39.2196C55.2287 39.2436 55.2802 39.2711 55.3297 39.302C55.3993 39.389 55.4701 39.4748 55.5408 39.5572C55.5486 39.5349 55.558 39.5132 55.5687 39.4922C55.718 39.6457 55.8593 39.8067 55.9921 39.9748C56.47 38.6152 58.3689 38.6118 59.3723 39.3205C59.6087 39.4891 59.8022 39.7108 59.9372 39.9678C59.9881 40.1936 59.9838 40.4284 59.9245 40.6522C59.863 40.8668 59.9117 41.0292 60.0498 41.0756C60.1536 41.1009 60.2631 41.0868 60.3572 41.0362C60.7249 40.8703 61.0288 40.6673 61.4557 40.7137C62.8477 40.861 63.8627 42.6706 63.0379 43.8515C62.989 43.9248 62.9335 43.9936 62.872 44.0568C62.756 44.1728 62.495 44.3085 62.437 44.4744C62.4354 44.4785 62.4354 44.4831 62.437 44.4872C62.3326 44.8352 63.1029 44.9129 63.3082 45.0022C65.1271 45.769 64.7431 49.5088 62.524 49.6248Z" fill="#3FBDF1"/>
<path d="M30.9024 40.1928C30.4697 39.2718 30.7864 37.9807 31.2794 37.0052C31.6564 36.2477 31.356 35.0332 30.3932 34.8974C29.3932 34.7629 28.8341 36.0238 28.5221 36.7848C28.177 37.6281 27.9936 38.5289 27.9815 39.44C27.9559 40.409 28.027 41.3782 28.1938 42.333C28.2704 42.7437 28.4084 43.1369 28.5058 43.5383C28.6137 43.9768 28.4966 44.4129 28.3376 44.8236C27.7147 46.4 26.8378 47.8755 26.1777 49.4404C25.4644 51.0967 24.892 52.8103 24.4667 54.5629C23.6478 58.0232 23.4784 61.6923 24.4354 65.1433C26.245 71.6648 35.4148 69.5235 40.6661 67.6953C42.862 66.9309 44.3781 66.2198 44.3781 66.2198C44.3781 66.2198 44.3909 66.7255 44.3909 67.5816C44.3909 67.621 44.3909 67.6616 44.3909 67.6976C44.3978 71.1393 44.2598 79.7871 42.7773 84.9248C42.7131 85.1464 42.5784 85.3409 42.3935 85.4789C42.2086 85.6169 41.9837 85.6907 41.753 85.6892C38.0202 85.6741 22.3022 86.2043 25.281 96.3554C26.2879 99.7844 30.1867 101.017 35.1677 101.06H35.1898C35.5946 101.06 36.0087 101.06 36.4286 101.049H36.4565C38.3068 100.985 40.1521 100.818 41.9839 100.549C48.4729 99.6347 55.3772 97.6836 59.8374 96.2777C60.0946 96.2099 60.3575 96.166 60.6228 96.1466C60.733 96.1339 60.8548 96.1246 60.9916 96.1188H61.0032C62.2154 96.0701 64.2733 96.2777 66.6872 97.7428C70.5732 100.096 74.1112 101.216 75.5404 97.9458C76.9695 94.6757 73.0197 92.452 73.0197 92.452C70.0199 90.132 66.2372 89.8571 62.5507 90.016C61.4127 90.0659 60.2806 90.161 59.1867 90.248C54.8088 90.5968 50.4302 90.9448 46.0508 91.292L40.3135 91.756" stroke="black" stroke-width="0.664046" stroke-miterlimit="10"/>
<path d="M32.4627 39.578C32.4627 39.578 31.8375 38.3148 32.6112 36.3393C32.9302 35.5273 33.2979 34.5448 33.1471 33.6551C33.0999 33.3257 32.9249 33.0281 32.6599 32.8268C32.4694 32.6889 32.2322 32.6318 31.9999 32.6679C31.102 32.7932 30.5986 33.9196 30.2947 34.8916" stroke="black" stroke-width="0.664046" stroke-miterlimit="10"/>
<path d="M33.7687 38.8449C33.7687 38.8449 33.1748 37.8392 33.9845 36.2929C34.1202 36.0354 34.3499 35.6236 34.5645 35.155C35.1236 33.9799 35.6386 32.4313 34.5123 31.9858C33.945 31.762 33.2363 32.139 32.8651 32.56C32.7896 32.6457 32.7191 32.7355 32.6539 32.8292" stroke="black" stroke-width="0.664046" stroke-miterlimit="10"/>
<path d="M34.568 35.148C34.8551 35.0856 35.1499 35.0661 35.4427 35.09C36.0992 35.148 36.8567 35.4113 37.1119 36.0435C37.25 36.3915 37.2001 37.0191 36.8474 37.2151C36.3997 37.461 35.851 37.2986 35.4032 37.5283C34.9033 37.7858 34.7072 38.476 34.7803 38.998C34.7945 39.2027 34.8761 39.3968 35.0123 39.5502C35.8034 40.3413 36.3463 38.1582 36.6468 37.7986C37.0551 37.3079 37.6525 37.3961 38.0794 37.8102C38.8589 38.5642 38.6072 39.8762 38.3415 40.7972C37.9692 42.086 37.33 43.6172 36.2535 44.4709C35.8684 44.7748 35.2281 45.1669 35.1794 45.7098C35.1794 45.7098 33.0113 52.6872 33.1412 56.5187C33.1507 56.8288 33.2261 57.1334 33.3626 57.412C33.499 57.6907 33.6933 57.9371 33.9326 58.1347C34.1718 58.3323 34.4504 58.4766 34.7498 58.558C35.0492 58.6394 35.3625 58.656 35.6689 58.6067C36.8289 58.4176 37.9958 58.2401 39.1489 58.0267C39.9678 57.877 40.7833 57.7297 41.6023 57.5882C45.2435 56.9688 48.879 56.4874 52.5596 56.4711C52.7375 56.4714 52.9095 56.4074 53.0439 56.2907C53.1782 56.1741 53.2658 56.0128 53.2904 55.8366L53.36 55.332L53.8182 52.5004" stroke="black" stroke-width="0.664046" stroke-miterlimit="10"/>
<path d="M81.9064 40.8065C82.339 39.8854 82.0224 38.5944 81.5294 37.6188C81.1489 36.8613 81.4528 35.6468 82.4156 35.5111C82.4492 35.5111 82.4829 35.5053 82.5142 35.5053C83.4619 35.4589 83.9955 36.6896 84.296 37.4228C84.6452 38.2949 84.8255 39.2255 84.8272 40.165C84.8362 40.957 84.7776 41.7482 84.6521 42.5302C84.5454 43.1798 84.2008 43.8248 84.2507 44.493C84.2902 45.0544 84.6219 45.5857 84.8551 46.0914C85.8608 48.2572 87.0382 50.3486 87.8456 52.5874C88.1534 53.4258 88.3943 54.2873 88.5659 55.1638C89.1721 58.3476 88.9525 61.6335 87.9279 64.7083C87.3688 66.3717 86.3851 68.0096 84.9676 69.0768C84.8207 69.1874 84.6703 69.2918 84.5164 69.39C82.6789 70.5802 80.3195 70.9329 78.17 70.8865C75.8871 70.8377 73.5903 70.3714 71.3991 69.7485C71.0163 69.6387 70.635 69.5227 70.2553 69.4005C69.8563 69.2741 69.4607 69.1453 69.0652 69.0107C68.6511 68.8669 68.2369 68.7219 67.8263 68.5688" stroke="black" stroke-width="0.664046" stroke-miterlimit="10"/>
<path d="M82.5143 35.5053C82.2104 34.5332 81.7023 33.4068 80.8091 33.2816C80.5767 33.2455 80.3395 33.3026 80.149 33.4405C79.8841 33.6418 79.709 33.9393 79.6618 34.2687C79.511 35.1584 79.8788 36.1398 80.1978 36.953C80.9715 38.925 80.3451 40.1928 80.3451 40.1928" stroke="black" stroke-width="0.664046" stroke-miterlimit="10"/>
<path d="M80.149 33.4405C80.084 33.3454 80.0109 33.2572 79.9379 33.1702C79.5632 32.7503 78.8579 32.3733 78.2895 32.5972C77.1643 33.0414 77.6793 34.5912 78.2385 35.7663C78.4589 36.2303 78.6885 36.6467 78.8185 36.9042C79.6305 38.4528 79.0331 39.4562 79.0331 39.4562" stroke="black" stroke-width="0.664046" stroke-miterlimit="10"/>
<path d="M78.2385 35.7663C77.9514 35.7041 77.6567 35.6841 77.3638 35.7071C76.7073 35.7663 75.9498 36.0296 75.6946 36.6618C75.5566 37.0098 75.6065 37.6374 75.9591 37.8334C76.4069 38.0793 76.9555 37.9158 77.4033 38.1466C77.9033 38.4041 78.0993 39.0943 78.0262 39.6163C78.012 39.821 77.9304 40.0151 77.7942 40.1685C77.0031 40.9596 76.4602 38.7765 76.1598 38.4169C75.7514 37.925 75.1541 38.0144 74.7272 38.4285C73.8862 39.2405 74.2516 40.8761 74.6042 41.8586C74.9882 42.9316 75.4847 44.0626 76.2793 44.8978C77.6017 46.2898 77.7455 48.4938 78.0958 50.2814C78.2396 51.0214 78.3777 51.7662 78.4879 52.512C78.7083 53.9562 78.8359 55.412 78.7199 56.8713C78.6904 57.2719 78.5784 57.6621 78.3909 58.0174C78.2035 58.3727 77.9447 58.6854 77.6306 58.936C77.3166 59.1865 76.9542 59.3694 76.5662 59.4732C76.1781 59.5771 75.7728 59.5996 75.3756 59.5393C70.1881 58.7447 60.1483 57.1312 60.1483 57.1312C60.0661 57.117 59.9916 57.0744 59.9377 57.0107C59.8838 56.9471 59.8541 56.8665 59.8536 56.7832L59.8049 52.3531" stroke="black" stroke-width="0.664046" stroke-miterlimit="10"/>
<path d="M51.5991 45.7724C51.3868 48.0542 52.1791 50.634 53.6639 52.3346C56.434 55.5025 58.7679 52.3346 58.7679 52.3346" stroke="black" stroke-width="0.664046" stroke-miterlimit="10"/>
<path d="M60.9522 46.48C60.871 46.3292 60.9186 46.0566 60.849 45.8652C60.759 45.6145 60.5978 45.3956 60.385 45.2354C59.9418 44.9117 59.356 44.9314 58.8886 44.6461C58.464 44.3805 58.1286 43.9938 57.9258 43.536C57.8608 43.3898 57.8098 43.1671 57.6856 43.0615C57.4734 42.884 57.3504 43.1961 57.2216 43.319C57.0379 43.4903 56.807 43.6024 56.5588 43.6408C56.3106 43.6793 56.0566 43.6424 55.8296 43.5348C55.6208 43.4316 55.4758 43.2239 55.2578 43.1416C55.0397 43.0592 55.0258 43.4223 54.9933 43.5499C54.9725 43.659 54.9274 43.7621 54.8613 43.8515C54.7953 43.9409 54.7099 44.0142 54.6116 44.0661C54.2277 44.2552 53.7034 44.131 53.3693 43.9072C53.3469 43.8917 53.3206 43.8829 53.2934 43.8818C53.2662 43.8807 53.2393 43.8874 53.2157 43.901C53.1921 43.9146 53.1729 43.9346 53.1603 43.9587C53.1476 43.9828 53.1421 44.01 53.1442 44.0371C53.1964 45.5451 51.41 45.8154 51.41 45.8154" stroke="black" stroke-width="0.664046" stroke-miterlimit="10"/>
<path d="M54.1197 49.0912C55.0128 49.0912 55.7368 48.3672 55.7368 47.4742C55.7368 46.5811 55.0128 45.8571 54.1197 45.8571C53.2267 45.8571 52.5027 46.5811 52.5027 47.4742C52.5027 48.3672 53.2267 49.0912 54.1197 49.0912Z" stroke="black" stroke-width="0.664046" stroke-miterlimit="10"/>
<path d="M58.3109 48.9474C59.204 48.9474 59.9279 48.2234 59.9279 47.3303C59.9279 46.4372 59.204 45.7133 58.3109 45.7133C57.4178 45.7133 56.6938 46.4372 56.6938 47.3303C56.6938 48.2234 57.4178 48.9474 58.3109 48.9474Z" stroke="black" stroke-width="0.664046" stroke-miterlimit="10"/>
<path d="M53.4435 47.6366C53.4435 47.6366 54.0954 48.3848 54.7659 47.6366" stroke="black" stroke-width="0.664046" stroke-miterlimit="10"/>
<path d="M57.6521 47.6366C57.6521 47.6366 58.304 48.3848 58.9757 47.6366" stroke="black" stroke-width="0.664046" stroke-miterlimit="10"/>
<path d="M56.4096 51.2036C56.7242 51.2036 56.9792 50.9486 56.9792 50.634C56.9792 50.3194 56.7242 50.0644 56.4096 50.0644C56.0951 50.0644 55.8401 50.3194 55.8401 50.634C55.8401 50.9486 56.0951 51.2036 56.4096 51.2036Z" stroke="black" stroke-width="0.664046" stroke-miterlimit="10"/>
<path d="M55.7368 47.4742C55.7368 47.4742 56.1034 46.8768 56.6938 47.3303" stroke="black" stroke-width="0.664046" stroke-miterlimit="10"/>
<path d="M54.9933 45.0741C54.9933 45.0741 53.3148 43.7912 51.9077 45.001" stroke="black" stroke-width="0.664046" stroke-miterlimit="10"/>
<path d="M59.9047 44.4013C59.9047 44.4013 57.9107 43.7053 56.9479 45.2887" stroke="black" stroke-width="0.664046" stroke-miterlimit="10"/>
<path d="M52.9308 51.3613C52.9269 51.6302 52.8385 51.891 52.6782 52.1069C52.5179 52.3227 52.2938 52.4828 52.0376 52.5642C51.2093 52.809 50.3324 52.1872 49.9728 51.4692C49.8417 51.221 49.7819 50.9414 49.7999 50.6614C49.8179 50.3813 49.9131 50.1116 50.0749 49.8823C50.0893 49.8594 50.0989 49.8337 50.1031 49.8069C50.1073 49.7801 50.106 49.7528 50.0993 49.7265C50.0926 49.7002 50.0806 49.6756 50.064 49.6541C50.0474 49.6326 50.0267 49.6148 50.0029 49.6016C49.8419 49.5047 49.7088 49.3678 49.6165 49.2041C49.5242 49.0405 49.4759 48.8557 49.4763 48.6678C49.4767 48.5898 49.4853 48.512 49.5018 48.4358C49.5071 48.4076 49.5065 48.3786 49.4999 48.3507C49.4934 48.3228 49.4811 48.2965 49.4639 48.2736C49.4466 48.2507 49.4248 48.2316 49.3998 48.2176C49.3748 48.2036 49.3471 48.1949 49.3185 48.1922C49.2341 48.1845 49.1504 48.1705 49.068 48.1504C48.8372 48.0686 48.6288 47.9338 48.4594 47.7569C48.29 47.5801 48.1643 47.3661 48.0924 47.132C47.7444 45.9998 48.6202 44.7911 49.7095 44.5185C49.3847 43.9478 48.9543 43.4872 48.7815 42.8249C48.6086 42.1625 48.7084 41.4781 49.2107 40.984C49.9937 40.2172 51.3219 40.4562 51.9529 41.2972C51.5272 40.6592 51.6861 39.7892 52.1652 39.23C52.7452 38.5549 53.8762 38.4076 54.6685 38.751C55.0455 38.9168 55.2879 39.2602 55.5454 39.563C56.0605 38.106 58.0974 38.0967 59.1809 38.86C59.7446 39.2625 60.1089 39.9922 59.9291 40.658C59.834 40.9956 60.0091 41.1974 60.3617 41.042C60.7144 40.8865 61.0334 40.6731 61.4603 40.7195C62.9381 40.8761 63.9879 42.9003 62.8766 44.0626C62.7606 44.1856 62.4996 44.3143 62.4416 44.4802C62.3152 44.8282 63.1005 44.9187 63.3093 45.008C65.1444 45.7782 64.7419 49.5575 62.4973 49.6341C62.5646 49.9554 62.7177 50.3115 62.6934 50.6433C62.6446 51.3451 62.147 51.7256 61.4719 51.7476C61.4884 51.9081 61.4561 52.0699 61.3791 52.2117C61.3021 52.3535 61.184 52.4687 61.0404 52.5422C60.6784 52.7348 60.0857 52.6895 59.8131 52.3543C59.3769 51.8276 59.8247 51.1374 60.0451 50.634C60.3699 49.8974 60.53 49.1028 60.6773 48.314C60.8121 47.6604 60.8989 46.9978 60.9371 46.3316V46.3037" stroke="black" stroke-width="0.664046" stroke-miterlimit="10"/>
<path d="M5.80005 100.21H29.3747" stroke="black" stroke-width="0.664046" stroke-miterlimit="10"/>
<path d="M88.6959 100.21H110.2" stroke="black" stroke-width="0.664046" stroke-miterlimit="10"/>
</svg>
