<svg width="24" height="24" viewBox="0 0 24 24" fill="none" xmlns="http://www.w3.org/2000/svg">
<path d="M8.61824 16.3129C8.61824 16.3129 7.48148 12.7754 9.56553 10.6431C10.4527 9.91571 11.4272 9.29858 12.4672 8.80558C12.4658 7.91118 12.7236 7.03498 13.2102 6.28C13.6969 5.52502 14.3921 4.92265 15.2143 4.54372C16.0364 4.1648 16.9512 4.02506 17.8512 4.14095C18.7512 4.25684 19.5989 4.62353 20.2946 5.19791C20.9903 5.7723 21.5051 6.53049 21.7786 7.38334C22.052 8.23619 22.0726 9.14824 21.8381 10.0123C21.6035 10.8763 21.1235 11.6563 20.4544 12.2607C19.7853 12.8651 18.9551 13.2686 18.0613 13.4239C16.2365 16.1458 12.2479 21 6.76353 21C3.85185 21 1 12.6084 1 8.80558V4.23635C1.00174 3.66895 1.2238 3.12372 1.62063 2.71257C2.01745 2.30143 2.55892 2.05557 3.1339 2.02544C4.85898 1.937 7.12251 2.02544 7.66097 3.17512C8.47864 4.85541 6.71368 7.87208 4.80912 7.87208C4.80912 9.34602 6.63391 12.5494 8.28918 14.3181" stroke="url(#paint0_linear_2_3074)" stroke-width="1.2" stroke-miterlimit="10"/>
<defs>
<linearGradient id="paint0_linear_2_3074" x1="1" y1="11.5" x2="22" y2="11.5" gradientUnits="userSpaceOnUse">
<stop stop-color="#6266EB"/>
<stop offset="0.360577" stop-color="#8F5BC0"/>
<stop offset="0.552885" stop-color="#A356AE"/>
<stop offset="0.764423" stop-color="#D84778"/>
<stop offset="0.956731" stop-color="#EF405F"/>
</linearGradient>
</defs>
</svg>
